<svg xmlns="http://www.w3.org/2000/svg" xmlns:xlink="http://www.w3.org/1999/xlink" viewBox="0 0 300 300"><defs><style>.cls-1{fill:#323642;}.cls-2{fill:#961414;}.cls-3{fill:#f7f7e8;}.cls-4{fill:#b71414;}.cls-5{fill:url(#radial-gradient);}.cls-6{fill:url(#linear-gradient);}</style><radialGradient id="radial-gradient" cx="137.898" cy="177.179" r="25.849" gradientUnits="userSpaceOnUse"><stop offset="0" stop-color="#fcf6d1"/><stop offset="0.522" stop-color="#fcf6d3"/><stop offset="0.789" stop-color="#faf6db"/><stop offset="0.995" stop-color="#f7f7e8"/></radialGradient><linearGradient id="linear-gradient" x1="20.725" y1="173.968" x2="146.805" y2="173.968" gradientUnits="userSpaceOnUse"><stop offset="0" stop-color="#fcfcf4"/><stop offset="0.039" stop-color="#fcfae7"/><stop offset="0.101" stop-color="#fcf8da"/><stop offset="0.183" stop-color="#fcf6d3"/><stop offset="0.365" stop-color="#fcf6d1"/></linearGradient></defs><title>aricalogo</title><g id="Layer_2" data-name="Layer 2"><circle class="cls-1" cx="150" cy="150" r="129.275"/></g><g id="Layer_1" data-name="Layer 1"><path class="cls-2" d="M83.534,260.9a129.368,129.368,0,0,0,132.932,0l-2.153-7.06H85.687Z"/><rect class="cls-3" x="98.507" y="123.579" width="102.986" height="106.54"/><rect class="cls-2" x="83.941" y="230.119" width="132.117" height="23.716"/><path class="cls-4" d="M207.541,111.207c-8.7-18.142-27.492-42.962-50.882-47.068h.077c-3.506-.8-2.134-2.151-.991-4.019h-.008a6.736,6.736,0,1,0-11.474,0h-.008c.044.072.091.142.137.213.011.016.021.033.033.05,1.146,1.732,2.717,2.994-1.162,3.756h.078c-23.39,4.106-42.18,28.926-50.882,47.068H75.13v15.026H224.87V111.207Z"/><path class="cls-2" d="M207.541,111.207c-8.7-18.142-27.492-42.962-50.882-47.068h.077c-3.506-.8-2.134-2.151-.991-4.019h-.008a6.733,6.733,0,0,0-8.932-9.447,6.726,6.726,0,0,1,4.517,11.8l.007,0c-1.648,1.443-3.36,2.324-.252,4.132L151,66.584c20.949,10.81,31.484,39.749,34.473,59.649H224.87V111.207Z"/><path class="cls-4" d="M192.768,271.778v-1.609a11.054,11.054,0,0,0-11.054-11.053H84.076l-.542,1.779a129.481,129.481,0,0,0,109.222,11.128C192.758,271.941,192.768,271.861,192.768,271.778Z"/><path class="cls-4" d="M83.941,230.119H186.809a5.959,5.959,0,0,1,5.959,5.959v11.8a5.959,5.959,0,0,1-5.959,5.959H83.941a0,0,0,0,1,0,0V230.119A0,0,0,0,1,83.941,230.119Z"/></g><g id="Layer_3" data-name="Layer 3"><circle class="cls-5" cx="137.898" cy="177.179" r="25.849"/><path class="cls-6" d="M146.805,170.464,24.057,120.734A129.569,129.569,0,0,0,46.289,227.2l100.516-41.744Z"/></g></svg>